<svg width="410" height="583" viewBox="0 0 410 583" fill="none" xmlns="http://www.w3.org/2000/svg">
<path d="M172.055 0C171.733 45.0711 173.647 69.1193 213.055 91C242.07 111.057 256.233 125.479 266.055 174.5C281.724 128.354 296.79 111.193 331.055 91C376.894 57.9868 378.833 37.0154 386.055 0C419.996 73.4646 413.307 110.624 386.055 174.5L275.055 361.5L213.055 341.5L148.555 174.5C118.924 97.8024 131.033 61.1288 172.055 0Z" fill="#F27313"/>
<path d="M196.564 361.5C278.568 380.001 312.759 397.566 359.564 463.5C359.564 463.5 308.565 605.001 262.064 525.5C215.564 446 103.551 435.5 105.564 475C105.564 492.5 133.32 499.04 161.564 475C185.937 477.944 198.383 483.069 215.564 506.5C168.914 575.217 124.776 583 105.564 583C86.3525 583 -2.73296 564.853 0.0644586 475C2.86188 385.148 114.561 343 196.564 361.5Z" fill="#F27313"/>
</svg>
